<svg width="17" height="17" viewBox="0 0 17 17" fill="none" xmlns="http://www.w3.org/2000/svg">
<path d="M13.4449 17H3.55513C1.59981 17 0 15.4002 0 13.4449V3.55513C0 1.59981 1.59981 0 3.55513 0H13.4449C15.4002 0 17 1.59981 17 3.55513V13.4449C17 15.4163 15.4163 17 13.4449 17ZM3.55513 0.646388C1.95532 0.646388 0.646388 1.95532 0.646388 3.55513V13.4449C0.646388 15.0447 1.95532 16.3536 3.55513 16.3536H13.4449C15.0447 16.3536 16.3536 15.0447 16.3536 13.4449V3.55513C16.3536 1.95532 15.0447 0.646388 13.4449 0.646388H3.55513Z" fill="#58595B"/>
<path d="M11.635 16.6768C11.635 15.4002 11.635 14.1236 11.635 12.8308V11.7642C11.635 11.7319 11.6511 11.7158 11.6834 11.7158H13.3317H13.3479H13.3641C13.3802 11.7158 13.3964 11.6996 13.3964 11.6834C13.4125 11.5218 13.4449 11.3441 13.461 11.1825C13.4772 11.0209 13.5095 10.8755 13.5256 10.7139C13.558 10.5846 13.5741 10.4553 13.5903 10.3099C13.6064 10.1483 13.6388 10.0028 13.6549 9.84124C13.6549 9.7766 13.6711 9.72812 13.6711 9.66348C13.6711 9.64732 13.6711 9.63116 13.6549 9.63116C13.6388 9.63116 13.6388 9.63116 13.6226 9.63116H11.6996C11.6673 9.63116 11.6511 9.615 11.6511 9.58268C11.6511 9.13021 11.6511 8.66158 11.6511 8.20911C11.6511 8.09599 11.6673 7.96671 11.7158 7.8536C11.7966 7.6112 11.9582 7.46576 12.2006 7.40112C12.3137 7.3688 12.4268 7.35265 12.5399 7.35265C12.5561 7.35265 12.5722 7.35265 12.5722 7.35265C12.7177 7.35265 12.8631 7.3688 13.0085 7.3688C13.0409 7.3688 13.0893 7.3688 13.1217 7.3688C13.6388 7.35265 13.6388 7.35265 13.7357 7.35265V5.51044C13.6711 5.49428 13.6064 5.49428 13.5418 5.49428C13.3802 5.47812 13.2348 5.46196 13.0732 5.46196C13.0247 5.46196 12.9762 5.46196 12.9277 5.46196C12.6853 5.46196 12.4268 5.4458 12.1844 5.4458C12.1198 5.4458 12.039 5.4458 11.9743 5.4458C11.5057 5.4458 11.0371 5.55892 10.6331 5.81747C10.1806 6.10835 9.87356 6.51234 9.67964 7.02945C9.615 7.22337 9.56652 7.43344 9.55036 7.64352C9.50189 7.99903 9.50189 8.37071 9.55036 8.72622C9.58268 9.00093 9.56652 9.25949 9.5342 9.5342C9.50189 9.64732 9.5342 9.64732 9.45341 9.64732C8.90398 9.64732 8.35455 9.64732 7.80512 9.64732C7.78896 9.64732 7.78896 9.64732 7.7728 9.64732C7.75664 9.64732 7.74048 9.66348 7.74048 9.67964V9.6958V11.6673C7.74048 11.6996 7.75664 11.7158 7.78896 11.7158H9.45341C9.48573 11.7158 9.50189 11.7319 9.50189 11.7642C9.50189 13.3964 9.50189 15.0447 9.50189 16.6768H11.635Z" fill="#58595B"/>
</svg>
