<svg width="17" height="17" viewBox="0 0 17 17" fill="none" xmlns="http://www.w3.org/2000/svg">
<path d="M11.1987 16.9995C10.6654 16.9995 10.116 16.9833 9.59886 16.9672L8.45152 16.9348H8.38688C7.95057 16.9348 7.53042 16.9348 7.12642 16.9348C6.20532 16.9348 5.2519 16.951 4.31464 16.8702C1.82605 16.644 0.113118 14.8502 0.0323194 12.4101C-0.0323194 9.74377 0 7.0451 0.129278 4.42723C0.258555 1.874 2.06844 0.112596 4.60551 0.047957C7.23954 -0.0328415 9.90589 -0.000522102 12.5399 0.128755C15.1093 0.274193 16.8707 2.08408 16.9515 4.63731C17.0323 7.25518 17 9.93769 16.8546 12.5717C16.7253 15.0442 14.9316 16.8056 12.3783 16.9672C12.0067 16.9995 11.6027 16.9995 11.1987 16.9995ZM8.43536 16.3046L9.61502 16.3369C10.52 16.3692 11.4411 16.3854 12.3622 16.3369C14.5599 16.2077 16.1112 14.6886 16.2243 12.5556C16.3698 9.93769 16.4021 7.27134 16.3213 4.66963C16.2567 2.47191 14.7215 0.904421 12.5238 0.791303C9.90589 0.662025 7.2557 0.629706 4.63783 0.710505C2.44011 0.758984 0.888783 2.27799 0.775665 4.45955C0.646388 7.06126 0.614068 9.74377 0.694867 12.4101C0.759506 14.5109 2.2462 16.0461 4.37928 16.24C5.28422 16.3208 6.22148 16.3208 7.12642 16.3046C7.54658 16.3046 7.95057 16.3046 8.37072 16.3046H8.43536Z" fill="#58595B"/>
<path d="M8.50011 12.3622C6.36703 12.3622 4.63794 10.6331 4.63794 8.49999C4.63794 6.36691 6.36703 4.63782 8.50011 4.63782C10.6332 4.63782 12.3623 6.36691 12.3623 8.49999C12.3623 10.6331 10.6332 12.3622 8.50011 12.3622ZM8.50011 5.28421C6.72254 5.28421 5.28433 6.72242 5.28433 8.49999C5.28433 10.2776 6.72254 11.7158 8.50011 11.7158C10.2777 11.7158 11.7159 10.2776 11.7159 8.49999C11.7159 6.72242 10.2777 5.28421 8.50011 5.28421Z" fill="#58595B"/>
<path d="M13.0085 4.97716C13.535 4.97716 13.9619 4.5503 13.9619 4.02373C13.9619 3.49717 13.535 3.07031 13.0085 3.07031C12.4819 3.07031 12.0551 3.49717 12.0551 4.02373C12.0551 4.5503 12.4819 4.97716 13.0085 4.97716Z" fill="#58595B"/>
</svg>
