<svg width="162" height="38" viewBox="0 0 162 38" fill="none" xmlns="http://www.w3.org/2000/svg">
<path d="M0 18.9909C0 8.46769 7.94016 0 19.1546 0C25.9397 0 31.888 3.47439 34.9349 8.84059L32.461 10.2595C30.0416 5.73911 24.9392 2.6831 19.1546 2.6831C9.47726 2.6831 2.79224 9.94112 2.79224 18.9909C2.79224 28.0407 9.47726 35.2987 19.1546 35.2987C24.9938 35.2987 30.1508 32.1972 32.5701 27.5677L35.044 28.9866C32.0426 34.4074 26.0488 37.9818 19.1546 37.9818C7.94926 37.9818 0 29.5141 0 18.9909Z" fill="#58595B"/>
<path d="M48.2139 18.9909C48.2139 8.46769 56.5815 0 67.2048 0C77.8371 0 86.1957 8.46769 86.1957 18.9909C86.1957 29.5141 77.828 37.9818 67.2048 37.9818C56.5724 37.9818 48.2139 29.5141 48.2139 18.9909ZM83.4034 18.9909C83.4034 9.94112 76.3 2.6831 67.1957 2.6831C58.0913 2.6831 50.9879 9.94112 50.9879 18.9909C50.9879 28.0407 58.0913 35.2987 67.1957 35.2987C76.3 35.3078 83.4034 28.0407 83.4034 18.9909Z" fill="#58595B"/>
<path d="M111.972 22.2562V37.4089H109.18V22.2562L95.7642 0.582153H98.9202L110.599 19.5731L122.222 0.582153H125.378L111.972 22.2562Z" fill="#58595B"/>
<path d="M136.22 29.3043L138.639 27.8854C139.903 32.3057 143.641 35.3071 149.69 35.3071C155.847 35.3071 158.949 32.1511 158.949 27.94C158.949 23.5197 155.056 21.837 149.426 20.0453C143.269 18.0443 137.748 16.3071 137.748 9.89497C137.748 3.84662 142.641 0.00842285 148.899 0.00842285C154.947 0.00842285 158.949 3.48281 160.731 7.73939L158.367 9.05821C157.002 5.74753 154.156 2.69152 148.899 2.69152C143.796 2.69152 140.585 5.69296 140.585 9.79492C140.585 14.2152 144.324 15.5795 149.581 17.3167C156.102 19.4723 161.787 21.5278 161.787 27.8945C161.787 33.9974 157.002 37.9993 149.69 37.9993C142.796 37.9811 137.902 34.5158 136.22 29.3043Z" fill="#58595B"/>
</svg>
