<svg width="110" height="110" viewBox="0 0 110 110" fill="none" xmlns="http://www.w3.org/2000/svg">
<path d="M55 110C85.3253 110 110 85.3253 110 55C110 35.9435 100.253 19.1213 85.4872 9.24492C85.1796 9.03444 84.8558 8.84015 84.5481 8.64586C76.0156 3.18958 65.8802 0 55 0C24.6747 0 0 24.6747 0 55C0 85.3253 24.6747 110 55 110ZM55 108.187C49.5761 108.187 44.3465 107.361 39.4083 105.855C40.5902 105.985 41.756 106.066 42.9379 106.066C45.496 106.066 48.0704 105.758 50.5961 105.175C50.5961 105.175 53.4457 104.511 54.7248 103.945C56.4895 103.297 58.2058 102.52 59.8734 101.581C68.6164 96.6264 74.5099 88.3368 76.5175 78.9137C80.5976 64.9735 93.6311 55.2429 108.154 55.1457C108.106 84.4024 84.2729 108.187 55 108.187ZM108.138 53.3162C95.0397 53.4133 83.1557 60.9582 77.3109 72.3241C77.3432 70.6079 77.2461 68.8755 77.0032 67.1269C76.4689 63.063 75.2061 59.1772 73.2794 55.5505L73.2956 55.5343L73.2794 55.5181C76.8899 53.3485 79.9985 50.6123 82.5567 47.3256L84.03 45.3341L84.2081 45.0751V45.0589C90.652 35.312 91.6883 23.2499 87.171 12.6936C99.5084 22.1004 107.62 36.7692 108.138 53.3162ZM55.081 58.6429C43.9741 58.4486 33.5149 52.5066 27.7348 42.9541C31.7825 40.8007 36.154 39.554 40.7198 39.2464C40.7521 39.3273 40.7845 39.3921 40.8169 39.4731C41.1893 40.3797 41.5779 41.2864 41.9826 42.1445C42.0312 42.2255 42.0636 42.3226 42.1122 42.4036C42.5493 43.3103 43.0027 44.2008 43.4884 45.0427C43.8931 45.7551 44.3141 46.4513 44.7513 47.1313C44.897 47.358 45.0427 47.5684 45.1884 47.7951C45.496 48.2485 45.8036 48.718 46.1113 49.1551C46.2894 49.398 46.4675 49.6571 46.6618 49.8999C46.9694 50.3047 47.2608 50.7094 47.5846 51.098C47.7789 51.3409 47.9894 51.5999 48.1837 51.8428C48.5075 52.2314 48.8151 52.6038 49.1551 52.9762C49.3656 53.219 49.5761 53.4457 49.7866 53.6885C50.1266 54.0609 50.4828 54.4333 50.839 54.7895C51.0495 55 51.2599 55.2267 51.4704 55.4372C51.8752 55.8257 52.28 56.2143 52.7009 56.5867C52.879 56.7486 53.0571 56.9267 53.2514 57.0886C53.8505 57.6229 54.4495 58.141 55.081 58.6429ZM74.607 19.9308C77.1975 16.2555 80.4681 13.2278 84.3215 10.8964C89.5673 20.7727 89.373 32.4463 83.9005 42.096C83.7872 41.3188 83.6576 40.5417 83.5119 39.7807C83.4634 39.554 83.4148 39.3435 83.3662 39.1169C83.2529 38.5502 83.1395 37.9997 82.9938 37.433C82.9291 37.1416 82.8481 36.8502 82.7671 36.5587C82.6376 36.073 82.5081 35.6035 82.3624 35.1178C82.2652 34.8101 82.1681 34.5025 82.0709 34.1949C81.9252 33.7415 81.7633 33.2882 81.6014 32.8349C81.4881 32.5272 81.3747 32.2196 81.2614 31.912C81.0833 31.4586 80.9052 31.0053 80.7109 30.552C80.5976 30.2605 80.4681 29.9691 80.3385 29.6777C80.1281 29.1919 79.9014 28.7062 79.6585 28.2205C79.5452 27.9776 79.4319 27.7348 79.3023 27.4919C78.9461 26.7795 78.5737 26.0671 78.169 25.3547C77.8937 24.869 77.6023 24.3833 77.3109 23.9137C77.2137 23.7518 77.1166 23.6061 77.0032 23.4442C76.7928 23.1204 76.5823 22.7966 76.3718 22.4728C76.2585 22.2947 76.1289 22.1166 75.9994 21.9385C75.7889 21.6309 75.5785 21.3394 75.368 21.0318C75.2384 20.8375 75.0927 20.6594 74.947 20.4651C74.8822 20.3032 74.7365 20.1089 74.607 19.9308ZM72.4213 53.9314C72.2917 53.7047 72.1784 53.4781 72.0651 53.2352C71.9193 52.9438 71.7736 52.6523 71.6441 52.3609C71.466 51.9723 71.3041 51.5838 71.126 51.1952C70.9965 50.9037 70.8831 50.6123 70.7698 50.3209C70.6241 49.9161 70.4784 49.5113 70.3488 49.1066C70.2517 48.8151 70.1384 48.5237 70.0574 48.2323C69.9279 47.8113 69.8145 47.3903 69.7012 46.9856C69.6203 46.6941 69.5393 46.4027 69.4745 46.1275C69.3774 45.6903 69.2803 45.237 69.1993 44.7998C69.1507 44.5246 69.086 44.2655 69.0374 43.9903C68.9564 43.4884 68.8917 42.9865 68.8431 42.4845C68.8107 42.2741 68.7783 42.0474 68.7621 41.8369C68.6974 41.1245 68.6488 40.3959 68.6326 39.6835C68.6326 39.5378 68.6326 39.3921 68.6326 39.2464C68.6164 38.6797 68.6164 38.0969 68.6488 37.5302C68.665 37.2549 68.6812 36.9797 68.6974 36.7044C68.7298 36.2673 68.746 35.814 68.7945 35.3768C68.8269 35.0692 68.8755 34.7616 68.924 34.4539C68.9726 34.0492 69.0374 33.6282 69.1021 33.2234C69.1507 32.8996 69.2317 32.592 69.2964 32.2682C69.3774 31.8796 69.4583 31.491 69.5555 31.0863C69.6364 30.7624 69.7336 30.4386 69.8145 30.131C69.9279 29.7424 70.025 29.37 70.1384 28.9976C70.2355 28.6738 70.3488 28.3662 70.4622 28.0424C70.5917 27.67 70.7212 27.2976 70.8669 26.9414C70.9965 26.6176 71.126 26.31 71.2555 26.0024C71.4174 25.6462 71.5631 25.2738 71.7412 24.9176C71.887 24.61 72.0489 24.3023 72.1946 23.9947C72.3727 23.6385 72.567 23.2823 72.7613 22.9423C72.9232 22.6347 73.1013 22.3432 73.2794 22.0356C73.3765 21.8899 73.4737 21.728 73.5546 21.5823C73.587 21.6308 73.6194 21.6632 73.6518 21.7118C74.1537 22.3918 74.6232 23.0718 75.0765 23.7518C75.1575 23.8814 75.2546 24.0109 75.3356 24.1566C75.7889 24.869 76.2423 25.5814 76.647 26.2938C77.0518 27.0062 77.4404 27.7348 77.7966 28.4634C77.9423 28.7548 78.0556 29.03 78.2014 29.3215C78.4118 29.7748 78.6385 30.212 78.8328 30.6653C78.9785 30.9891 79.0918 31.3291 79.2376 31.6529C79.4157 32.0739 79.5938 32.4949 79.7395 32.9158C79.869 33.2558 79.9823 33.612 80.0957 33.9682C80.2414 34.3892 80.3871 34.7939 80.5166 35.2149C80.63 35.5873 80.7271 35.9597 80.8243 36.3321C80.9376 36.7368 81.0671 37.1416 81.1643 37.5626C81.2614 37.9511 81.3424 38.3397 81.4233 38.7283C81.5043 39.1331 81.6014 39.5216 81.6824 39.9264C81.7633 40.3312 81.8281 40.7521 81.8929 41.1569C81.9576 41.5455 82.0224 41.9341 82.0871 42.3226C82.1519 42.7598 82.1843 43.1969 82.2329 43.6341C82.2652 43.9579 82.3138 44.2979 82.3462 44.6217C79.7071 48.4104 76.3718 51.5352 72.4213 53.9314ZM72.3403 20.0118C72.0651 20.4327 71.806 20.8699 71.5631 21.2908C71.5146 21.388 71.4498 21.4851 71.385 21.5661C71.0127 22.1975 70.6727 22.8452 70.3488 23.509C70.2517 23.6871 70.1707 23.8814 70.0898 24.0757C69.8631 24.5614 69.6364 25.0471 69.4422 25.5328C69.345 25.7595 69.2641 25.97 69.1669 26.1966C68.9726 26.6986 68.7783 27.2005 68.6164 27.7024C68.5517 27.8805 68.4869 28.0748 68.4221 28.2529C68.1955 28.9329 68.0012 29.6291 67.8231 30.3091C67.7907 30.4224 67.7745 30.552 67.7421 30.6815C67.5964 31.2644 67.4831 31.831 67.3697 32.4139C67.3212 32.6406 67.2888 32.8672 67.2564 33.0777C67.1755 33.5796 67.0945 34.0815 67.0297 34.5835C66.9974 34.8101 66.9812 35.0206 66.9488 35.2473C66.884 35.8787 66.8354 36.5102 66.8031 37.1416C66.8031 37.2225 66.7869 37.3035 66.7869 37.3845C66.7545 38.0969 66.7545 38.8092 66.7707 39.5216C66.7707 39.7159 66.7869 39.9264 66.8031 40.1207C66.8193 40.6388 66.8516 41.1569 66.9002 41.675C66.9164 41.9017 66.9488 42.1445 66.965 42.3712C67.0297 42.9055 67.0945 43.4236 67.1755 43.9579C67.2078 44.1522 67.224 44.3303 67.2564 44.5246C67.3859 45.2208 67.5155 45.9332 67.6936 46.6294C67.7259 46.7751 67.7745 46.9046 67.8069 47.0503C67.9202 47.4713 68.0174 47.8923 68.1469 48.3132C67.8231 47.9732 67.4993 47.6332 67.1593 47.3094C67.1107 47.2608 67.0459 47.1961 66.9974 47.1475C66.4792 46.6294 65.945 46.1437 65.3945 45.6741C65.2811 45.577 65.184 45.496 65.0706 45.3989C64.6173 45.0103 64.164 44.6541 63.6782 44.2979C63.5487 44.2008 63.403 44.0874 63.2735 43.9903C62.723 43.5855 62.1725 43.1969 61.6058 42.8407C61.5734 42.8246 61.5411 42.7922 61.5087 42.776C60.8934 42.3874 60.262 42.015 59.6306 41.6588C59.5172 41.5941 59.3877 41.5293 59.2744 41.4645C58.7563 41.1893 58.222 40.914 57.7039 40.6712C57.5419 40.5902 57.3962 40.5255 57.2343 40.4445C56.6353 40.1693 56.0362 39.9102 55.421 39.6835C55.3724 39.6674 55.3076 39.635 55.2591 39.6188C54.5952 39.3597 53.9152 39.1331 53.219 38.9226C53.0571 38.874 52.8952 38.8254 52.7171 38.7769C52.199 38.615 51.6647 38.4854 51.1304 38.3559C50.9199 38.3073 50.7256 38.2588 50.5152 38.2102C49.9323 38.0807 49.3494 37.9673 48.7504 37.8702C48.637 37.854 48.5237 37.8216 48.4104 37.8054C47.7142 37.6921 47.018 37.6111 46.3056 37.5464C46.0951 37.5302 45.8846 37.514 45.6741 37.4978C45.156 37.4492 44.6217 37.433 44.0874 37.4168C43.8608 37.4168 43.6341 37.4007 43.3912 37.4007C43.2455 37.4007 43.0836 37.3845 42.9379 37.3845C42.5979 37.3845 42.2579 37.3845 41.9179 37.4007C37.9349 26.5366 38.3235 14.345 42.9541 3.70768C54.4495 5.14866 65.0868 11.0745 72.3403 20.0118ZM57.9953 58.5458C57.6715 58.3029 57.3477 58.0601 57.0238 57.8172C56.7324 57.5905 56.441 57.38 56.1495 57.1534C55.7772 56.8619 55.421 56.5543 55.0648 56.2467C54.8057 56.02 54.5305 55.7933 54.2714 55.5667C53.9152 55.2429 53.5752 54.919 53.219 54.579C52.9762 54.3524 52.7171 54.1095 52.4742 53.8828C52.1342 53.5428 51.7942 53.1704 51.4542 52.8142C51.2276 52.5714 51.0009 52.3447 50.7742 52.1019C50.4342 51.7295 50.1266 51.3409 49.8028 50.9523C49.5923 50.7094 49.3818 50.4828 49.1875 50.2237C48.8637 49.819 48.5561 49.398 48.2323 48.977C48.0542 48.7342 47.8761 48.5075 47.698 48.2646C47.358 47.7951 47.0503 47.3256 46.7265 46.8399C46.597 46.6294 46.4513 46.4351 46.3056 46.2246C45.8684 45.5284 45.4313 44.816 45.0265 44.1036C44.6217 43.3912 44.2493 42.6788 43.8931 41.9341C43.8122 41.7883 43.7474 41.6426 43.6665 41.4807C43.3265 40.7683 42.9865 40.0236 42.6788 39.2626C42.6626 39.214 42.6465 39.1654 42.6303 39.1331C42.7922 39.1331 42.9541 39.1331 43.1322 39.1331C43.5046 39.1331 43.8769 39.1493 44.2493 39.1654C44.5893 39.1816 44.9293 39.1978 45.2694 39.214C45.6903 39.2464 46.0951 39.2788 46.516 39.3274C46.8075 39.3597 47.1151 39.3921 47.4065 39.4407C47.8437 39.5054 48.2646 39.5702 48.7018 39.635C48.977 39.6835 49.2523 39.7483 49.5437 39.7969C49.9647 39.8778 50.4018 39.975 50.8228 40.0721C51.098 40.1369 51.3733 40.2178 51.6647 40.2988C52.0695 40.4121 52.4904 40.5255 52.8952 40.655C53.1866 40.7521 53.4781 40.8493 53.7695 40.9626C54.1419 41.0921 54.5305 41.2217 54.9029 41.3674C55.2267 41.4969 55.5343 41.6264 55.8581 41.7722C56.1981 41.9179 56.5219 42.0474 56.8619 42.2093C57.2343 42.3874 57.5905 42.5817 57.9629 42.7598C58.222 42.8893 58.4972 43.0188 58.7563 43.1646C59.2906 43.456 59.8087 43.7798 60.3268 44.1036C60.4077 44.1522 60.5049 44.2008 60.5858 44.2493C61.2011 44.6379 61.8001 45.0589 62.383 45.496C62.4477 45.5446 62.5125 45.5932 62.5611 45.6417C63.0792 46.0303 63.5811 46.4351 64.0668 46.8399C64.2125 46.9694 64.3583 47.0989 64.504 47.2284C64.8926 47.5846 65.2973 47.9246 65.6697 48.297C65.8478 48.4751 66.0097 48.6532 66.1878 48.8313C66.5278 49.1713 66.8516 49.5113 67.1755 49.8675C67.3697 50.078 67.5478 50.2885 67.7259 50.5152C68.0174 50.8552 68.3088 51.1952 68.584 51.5514C68.7621 51.7942 68.9402 52.0371 69.1345 52.28C69.3936 52.62 69.6364 52.9762 69.8793 53.3324C70.0574 53.5914 70.2193 53.8666 70.3974 54.1257C70.5431 54.3362 70.6727 54.5629 70.8022 54.7895C66.7869 56.9753 62.4963 58.222 57.9953 58.5458ZM55 1.82956C65.184 1.82956 74.7041 4.71151 82.7995 9.69826C79.1242 12.0135 75.9832 14.9441 73.4251 18.4413L73.4089 18.4089L73.3927 18.4413C66.625 10.3135 57.1534 4.64675 46.7913 2.46099C49.4628 2.04004 52.2152 1.82956 55 1.82956ZM40.995 3.70768C36.5587 14.4098 36.2349 26.5367 40.0559 37.433H40.0235L40.0397 37.4654C35.0854 37.8864 30.3739 39.3273 26.0185 41.7883L25.2252 42.2417L25.6785 43.035C31.7663 53.7857 43.3588 60.4563 55.6314 60.4563C56.2305 60.4563 57.461 60.4077 57.461 60.4077L60.2296 60.1325C64.2287 59.582 68.0659 58.3515 71.6765 56.4248C73.4898 59.841 74.688 63.5163 75.1899 67.3697C76.7928 79.3833 71.6765 91.0082 62.043 97.9865C62.8687 96.8045 63.5649 95.5093 64.0992 94.1007C66.4792 87.8187 65.5564 80.1442 61.8001 74.9794C56.781 68.0659 36.6235 53.7209 3.65911 68.8593C2.46099 64.4392 1.81336 59.7925 1.81336 55C1.82956 30.5358 18.4413 9.87636 40.995 3.70768ZM60.3429 76.048C63.6944 80.6624 64.5526 87.8187 62.3992 93.453C61.282 96.3998 58.9829 100.01 54.239 102.18C44.6865 105.726 33.952 104.625 25.209 98.9579L25.1766 99.0065C15.2841 92.2873 7.77156 82.3138 4.17722 70.6403C36.1702 55.8095 55.5505 69.4584 60.3429 76.048Z" fill="white"/>
</svg>
